<?xml version="1.0" encoding="UTF-8"?>
<svg xmlns="http://www.w3.org/2000/svg" viewBox="0 0 423.71 434.08">
  <defs>
    <style>
      .cls-1 {
        opacity: .1;
      }

      .cls-1, .cls-2, .cls-3, .cls-4, .cls-5, .cls-6, .cls-7, .cls-8, .cls-9, .cls-10, .cls-11, .cls-12, .cls-13, .cls-14 {
        stroke-width: 0px;
      }

      .cls-2 {
        opacity: .5;
      }

      .cls-2, .cls-4, .cls-12 {
        fill: #fff;
      }

      .cls-15 {
        opacity: .2;
      }

      .cls-16, .cls-4 {
        opacity: .3;
      }

      .cls-5 {
        fill: #7794ff;
      }

      .cls-6 {
        fill: #263238;
      }

      .cls-7 {
        fill: #38261f;
      }

      .cls-8 {
        fill: #382f2d;
      }

      .cls-9 {
        fill: #072dff;
      }

      .cls-10 {
        fill: #c7c7c7;
      }

      .cls-11 {
        fill: #a6a6a6;
      }

      .cls-13 {
        fill: #ffd4d4;
      }

      .cls-14 {
        fill: #ebebeb;
      }
    </style>
  </defs>
  <g id="Background_Complete" data-name="Background Complete">
    <g>
      <path class="cls-14" d="m54.49,287.8l-14.83.28-7.51.11c-2.51.05-5.03.04-7.55.06h-.44s0-.45,0-.45l-.05-12.63v-.5s.5,0,.5,0l14.95.06c4.98,0,9.97.11,14.95.16h.28s0,.27,0,.27c-.02,2.14-.09,4.27-.13,6.38l-.14,6.26Zm0,0l-.14-6.38c-.05-2.1-.11-4.19-.13-6.26l.27.27c-4.98.05-9.97.16-14.95.16l-14.95.06.5-.5-.05,12.63-.45-.45c2.47.02,4.93,0,7.4.06l7.43.11,15.06.28Z"/>
      <path class="cls-14" d="m37.81,303.73l-14.83.28-7.51.11c-2.51.05-5.03.04-7.55.06h-.44s0-.45,0-.45l-.05-12.63v-.5s.5,0,.5,0l14.95.06c4.98,0,9.97.11,14.95.16h.28s0,.27,0,.27c-.02,2.14-.09,4.27-.13,6.38l-.14,6.26Zm0,0l-.14-6.38c-.05-2.1-.11-4.19-.13-6.26l.27.27c-4.98.05-9.97.16-14.95.16l-14.95.06.5-.5-.05,12.63-.45-.45c2.47.02,4.93,0,7.4.05l7.43.11,15.06.28Z"/>
      <path class="cls-14" d="m37.81,30.37l-14.83.28-7.51.11c-2.51.05-5.03.04-7.55.06h-.44s0-.45,0-.45l-.05-12.63v-.5s.5,0,.5,0l14.95.06c4.98,0,9.97.11,14.95.16h.28s0,.27,0,.27c-.02,2.14-.09,4.27-.13,6.38l-.14,6.26Zm0,0l-.14-6.38c-.05-2.1-.11-4.19-.13-6.26l.27.27c-4.98.05-9.97.16-14.95.16l-14.95.06.5-.5-.05,12.63-.45-.45c2.47.02,4.93,0,7.4.05l7.43.11,15.06.28Z"/>
      <path class="cls-14" d="m415.79,30.37l-14.83.28-7.51.11c-2.51.05-5.03.04-7.55.06h-.44s0-.45,0-.45l-.05-12.63v-.5s.5,0,.5,0l14.95.06c4.98,0,9.97.11,14.95.16h.28s0,.27,0,.27c-.02,2.14-.09,4.27-.13,6.38l-.14,6.26Zm0,0l-.14-6.38c-.05-2.1-.11-4.19-.13-6.26l.27.27c-4.98.05-9.97.16-14.95.16l-14.95.06.5-.5-.05,12.63-.45-.45c2.47.02,4.93,0,7.4.05l7.43.11,15.06.28Z"/>
      <path class="cls-14" d="m399.11,46.3l-14.83.28-7.51.11c-2.51.05-5.03.04-7.55.05h-.44s0-.45,0-.45l-.05-12.63v-.5s.5,0,.5,0l14.95.06c4.98,0,9.97.11,14.95.16h.28s0,.27,0,.27c-.02,2.14-.09,4.27-.13,6.38l-.14,6.26Zm0,0l-.14-6.38c-.05-2.1-.11-4.19-.13-6.26l.27.27c-4.98.05-9.97.16-14.95.16l-14.95.06.5-.5-.05,12.63-.45-.45c2.47.02,4.93,0,7.4.06l7.43.11,15.06.28Z"/>
      <path class="cls-14" d="m322.55,194.1l-14.83.28-7.51.11c-2.51.05-5.03.04-7.55.06h-.44s0-.45,0-.45l-.05-12.63v-.5s.5,0,.5,0l14.95.06c4.98,0,9.97.11,14.95.16h.28s0,.27,0,.27c-.02,2.14-.09,4.27-.13,6.38l-.14,6.26Zm0,0l-.14-6.38c-.05-2.1-.11-4.19-.13-6.26l.27.27c-4.98.05-9.97.16-14.95.16l-14.95.06.5-.5-.05,12.63-.45-.45c2.47.02,4.93,0,7.4.05l7.43.11,15.06.28Z"/>
      <path class="cls-14" d="m305.87,210.03l-14.83.28-7.51.11c-2.51.05-5.03.04-7.55.06h-.44s0-.45,0-.45l-.05-12.63v-.5s.5,0,.5,0l14.95.06c4.98,0,9.97.11,14.95.16h.28s0,.27,0,.27c-.02,2.14-.09,4.27-.13,6.38l-.14,6.26Zm0,0l-.14-6.38c-.05-2.1-.11-4.19-.13-6.26l.27.27c-4.98.05-9.97.16-14.95.16l-14.95.06.5-.5-.05,12.63-.45-.45c2.47.02,4.93,0,7.4.06l7.43.11,15.06.28Z"/>
      <path class="cls-14" d="m289.26,194.1l-14.83.28-7.51.11c-2.51.05-5.03.04-7.55.06h-.44s0-.45,0-.45l-.05-12.63v-.5s.5,0,.5,0l14.95.06c4.98,0,9.97.11,14.95.16h.28s0,.27,0,.27c-.02,2.14-.09,4.27-.13,6.38l-.14,6.26Zm0,0l-.14-6.38c-.05-2.1-.11-4.19-.13-6.26l.27.27c-4.98.05-9.97.16-14.95.16l-14.95.06.5-.5-.05,12.63-.45-.45c2.47.02,4.93,0,7.4.05l7.43.11,15.06.28Z"/>
      <path class="cls-14" d="m415.79,303.73l-14.83.28-7.51.11c-2.51.05-5.03.04-7.55.06h-.44s0-.45,0-.45l-.05-12.63v-.5s.5,0,.5,0l14.95.06c4.98,0,9.97.11,14.95.16h.28s0,.27,0,.27c-.02,2.14-.09,4.27-.13,6.38l-.14,6.26Zm0,0l-.14-6.38c-.05-2.1-.11-4.19-.13-6.26l.27.27c-4.98.05-9.97.16-14.95.16l-14.95.06.5-.5-.05,12.63-.45-.45c2.47.02,4.93,0,7.4.05l7.43.11,15.06.28Z"/>
      <path class="cls-14" d="m161.78,67.94l-14.83.28-7.51.11c-2.51.05-5.03.04-7.55.05h-.44s0-.45,0-.45l-.05-12.63v-.5s.5,0,.5,0l14.95.06c4.98,0,9.97.11,14.95.16h.28s0,.27,0,.27c-.02,2.14-.09,4.27-.13,6.38l-.14,6.26Zm0,0l-.14-6.38c-.05-2.1-.11-4.19-.13-6.26l.27.27c-4.98.05-9.97.16-14.95.16l-14.95.06.5-.5-.05,12.63-.45-.45c2.47.02,4.93,0,7.4.05l7.43.11,15.06.28Z"/>
    </g>
  </g>
  <g id="Floor">
    <polygon class="cls-6" points="5.23 372.99 56.88 372.74 108.54 372.65 211.85 372.49 315.17 372.65 366.82 372.74 418.48 372.99 366.82 373.23 315.17 373.32 211.85 373.49 108.54 373.32 56.88 373.23 5.23 372.99"/>
  </g>
  <g id="Shadow">
    <ellipse class="cls-14" cx="140.78" cy="415.88" rx="115.1" ry="18.2"/>
  </g>
  <g id="Mouse_house" data-name="Mouse house">
    <g>
      <path class="cls-10" d="m385.39,372.99h-152.08c0-20.58-7.75-125.09,76.03-125.09s76.04,104.51,76.04,125.09Z"/>
      <path class="cls-11" d="m338.08,252.98c-2.5-.22-5.11-.33-7.81-.33-80.62,0-73.15,100.55-73.15,120.34h-23.82c0-20.57-7.75-125.08,76.04-125.08,11.11,0,20.62,1.84,28.74,5.07Z"/>
    </g>
  </g>
  <g id="_404_Error" data-name="404 Error">
    <g>
      <g>
        <path class="cls-7" d="m85.85,208.54v-33.68H19.86v-26.9L95.57,50.78h20.57v96.96h19.89v27.12h-19.89v33.68h-30.29Zm-35.71-60.8h39.1v-51.08l-39.1,51.08Z"/>
        <path class="cls-7" d="m353.68,208.54v-33.68h-66v-26.9l75.71-97.19h20.57v96.96h19.89v27.12h-19.89v33.68h-30.29Zm-35.71-60.8h39.1v-51.08l-39.1,51.08Z"/>
        <g>
          <g>
            <path class="cls-9" d="m175.2,61.03c9.33-5.1,17.67-3.32,23.32-3.4,5.65-.08,17.15-7.91,23.75-6.73,6.6,1.18,38.96,16.78,44.09,23.71,5.13,6.93,13.64,24.73,14.43,28.31.79,3.58-1.29,23.8-.32,28.43.98,4.63-2.2,12.17-4.18,15.41s-6.75,15.38-7.93,17.58c-1.18,2.21-31.48,26.23-42.12,27.74-10.65,1.5-14.75-1.5-15.91-2.16-1.16-.66,2.34-8.21-3.17-10.02-5.51-1.81-7.57-2.69-7.57-2.69,0,0-1.56-4.63-4.46-5.72-2.9-1.09-6.95,2.05-6.95,2.05,0,0-1.23.69-3.65-.42-2.42-1.11-5.79.38-5.79.38,0,0-.97-2.14-3.78-3.19-2.81-1.05-6.1,4.93-6.1,4.93,0,0-18.37-15.36-19.38-19.13-1.02-3.77-1.02-8.78-2.41-13.45-1.39-4.67-4.28-6.86-4.33-14.69-.05-7.83,1.62-24.4,3.68-28.34,2.06-3.93,3.86-9.45,5.15-11.17,1.29-1.72,13.99-22.15,23.64-27.42Z"/>
            <g class="cls-16">
              <path class="cls-12" d="m175.2,61.03c9.33-5.1,17.67-3.32,23.32-3.4,5.65-.08,17.15-7.91,23.75-6.73,6.6,1.18,38.96,16.78,44.09,23.71,5.13,6.93,13.64,24.73,14.43,28.31.79,3.58-1.29,23.8-.32,28.43.98,4.63-2.2,12.17-4.18,15.41s-6.75,15.38-7.93,17.58c-1.18,2.21-31.48,26.23-42.12,27.74-10.65,1.5-14.75-1.5-15.91-2.16-1.16-.66,2.34-8.21-3.17-10.02-5.51-1.81-7.57-2.69-7.57-2.69,0,0-1.56-4.63-4.46-5.72-2.9-1.09-6.95,2.05-6.95,2.05,0,0-1.23.69-3.65-.42-2.42-1.11-5.79.38-5.79.38,0,0-.97-2.14-3.78-3.19-2.81-1.05-6.1,4.93-6.1,4.93,0,0-18.37-15.36-19.38-19.13-1.02-3.77-1.02-8.78-2.41-13.45-1.39-4.67-4.28-6.86-4.33-14.69-.05-7.83,1.62-24.4,3.68-28.34,2.06-3.93,3.86-9.45,5.15-11.17,1.29-1.72,13.99-22.15,23.64-27.42Z"/>
            </g>
          </g>
          <g>
            <path class="cls-9" d="m237.89,162.29c1.54-1.87,5.47-2.19,5.92-.16s-.58,4.35-3.25,4.29c-2.67-.06-3.3-3.36-2.67-4.13Z"/>
            <path class="cls-1" d="m240.22,166.38c-2.39-.3-2.94-3.36-2.34-4.09.84-1.02,2.38-1.58,3.68-1.55-.69.25-2.35,1.1-2.6,2.13-.25,1.01-.33,2.81,1.26,3.51Z"/>
          </g>
          <path class="cls-9" d="m153.87,121.78c2.64-5.18,11.31-2.44,12.08,2.22.78,4.66-3.88,7.98-7.21,7.76-3.33-.22-7.76-4.32-4.88-9.98Z"/>
          <g>
            <path class="cls-9" d="m249.96,128.32c-4.15-1.3-14.58,1.37-16.7,10.34-1.21,5.12,5.36,15.8,12.09,16.37,6.73.58,11.72-6.4,13.21-12.14,1.5-5.73-2.24-12.59-8.6-14.58Z"/>
            <path class="cls-1" d="m246.96,155.03c-.52.06-1.06.06-1.61.01-6.72-.58-13.3-11.27-12.09-16.38,2.11-8.97,12.55-11.65,16.7-10.34.79.25,1.53.57,2.23.96-5.39,1-12.77,6.39-13.38,10.23-.65,4.12,2.2,14.58,8.15,15.53Z"/>
          </g>
          <g>
            <path class="cls-9" d="m217.88,60.78c-.34,3.43-3.99,5.76-6.99,8.09-2.99,2.33-8.98,1.33-13.19-.66-4.21-2-6.65-10.2-6.54-10.81h0c2.76.03,5.24.26,7.35.23,3.89-.05,10.56-3.79,16.49-5.72,1.18,2.31,3.1,6.47,2.87,8.87Z"/>
            <path class="cls-1" d="m208.55,69.94c-3.18.78-7.56-.18-10.85-1.73-4.21-2-6.65-10.2-6.54-10.81h0c2.2.03,4.22.17,6.02.22.52,2.14,1.93,7.38,3.5,8.78,2,1.78,5.75,3.46,7.86,3.54Z"/>
          </g>
          <g>
            <path class="cls-9" d="m251.69,89.93c2.79-1.99,7.87-.02,8.2,3.92.33,3.95-4.77,6.16-8.2,3.5-3.44-2.66-1.55-6.32,0-7.43Z"/>
            <path class="cls-1" d="m252.57,92.59c-.58,2.16-.32,3.68,1.71,5.87-.9-.12-1.79-.48-2.6-1.1-3.43-2.66-1.55-6.32,0-7.43,1.39-.99,3.36-1,5.02-.26-.22-.09-3.55.76-4.13,2.92Z"/>
          </g>
          <g>
            <path class="cls-9" d="m209.42,181.36c-.61-.65-1.36-1.16-2.27-1.46-5.52-1.81-7.57-2.69-7.57-2.69,0,0-1.56-4.63-4.46-5.72-2.89-1.09-6.95,2.05-6.95,2.05.67-5.69,3.1-7.99,7.2-10.16,4.11-2.17,11.31-1.18,13.53,4.37,1.53,3.83.99,10.11.52,13.61Z"/>
            <path class="cls-1" d="m203.26,162.79c-2.73-.12-7.05,1.99-8.66,4.43-.72,1.09-1.1,2.66-1.31,4.07-2.52.24-5.12,2.25-5.12,2.25.67-5.69,3.1-7.99,7.2-10.16,2.17-1.14,5.19-1.41,7.89-.59Z"/>
          </g>
          <g>
            <path class="cls-9" d="m180.12,85.84c-7.25,3.98-12.16,15.13-11.9,18.85.27,3.72,2.75,9.65,5.94,12.48,7.2,6.37,21.4,3.45,24.85,0s7.33-14.05,6.11-19.25c-2.06-8.69-17.59-16.15-25-12.08Z"/>
            <path class="cls-1" d="m190.12,120.6c-5.39.81-11.83.22-15.96-3.44-3.2-2.83-5.68-8.76-5.94-12.47-.27-3.72,4.64-14.87,11.89-18.85,2.28-1.25,5.32-1.41,8.5-.78-3.74,2.75-9.91,7.83-11.26,12.28-1.97,6.49-.81,13.26,2.02,17.19,1.8,2.51,7.14,4.77,10.75,6.07Z"/>
          </g>
          <g>
            <path class="cls-9" d="m164.35,132.53c-1.48.96-3.17,1.45-4.64,1.35-3.88-.26-9.05-5.04-5.69-11.64,1.31-2.57,3.88-3.46,6.5-3.23,3.51.32,7.07,2.69,7.59,5.82.56,3.37-1.32,6.15-3.76,7.7Z"/>
            <path class="cls-1" d="m164.35,132.53c-1.48.96-3.17,1.45-4.64,1.35-3.88-.26-9.05-5.04-5.69-11.64,1.31-2.57,3.88-3.46,6.5-3.23-1.52,1.15-3.9,3.5-3.9,6.78,0,4.81,3.01,5.96,4.85,6.65.8.29,1.9.24,2.88.09Z"/>
          </g>
          <g>
            <path class="cls-9" d="m245.46,102.47c-.36.24-.78.36-1.14.33-.96-.06-2.23-1.24-1.4-2.86.32-.63.96-.85,1.6-.8.86.08,1.74.66,1.87,1.43.14.83-.32,1.51-.92,1.89Z"/>
            <path class="cls-1" d="m245.46,102.47c-.36.24-.78.36-1.14.33-.96-.06-2.23-1.24-1.4-2.86.32-.63.96-.85,1.6-.8-.37.28-.96.86-.96,1.67,0,1.18.74,1.47,1.19,1.64.2.07.47.06.71.02Z"/>
          </g>
          <g>
            <path class="cls-9" d="m164.69,141.9c2.48-1.17,6.64.41,6.12,2.7s-2.7,4.15-5.39,2.8c-2.7-1.35-1.74-5.02-.73-5.5Z"/>
            <path class="cls-1" d="m169.73,146.7c-1,1.1-2.54,1.59-4.32.7-2.69-1.34-1.74-5.02-.72-5.49.71-.34,1.57-.44,2.41-.37-.55.61-1.27,1.56-1.27,2.5,0,1.5,2.03,3.07,3.9,2.67Z"/>
          </g>
        </g>
      </g>
      <g>
        <path class="cls-7" d="m178.33,215.38v4.32h-14.97v-21.3h14.7v4.32h-9.78v4.14h8.4v3.99h-8.4v4.53h10.05Z"/>
        <path class="cls-7" d="m181.33,219.7v-21.3h9.6c1,0,1.92.21,2.78.63.85.42,1.58.97,2.21,1.65.62.68,1.1,1.45,1.45,2.31.35.86.52,1.73.52,2.61,0,.66-.08,1.3-.24,1.91-.16.61-.39,1.19-.69,1.72-.3.54-.67,1.03-1.09,1.46-.43.43-.91.79-1.45,1.1l4.68,7.92h-5.55l-4.08-6.87h-3.21v6.87h-4.92Zm4.92-11.16h4.5c.58,0,1.08-.27,1.5-.82.42-.55.63-1.25.63-2.12s-.24-1.58-.72-2.1c-.48-.52-1-.78-1.56-.78h-4.35v5.82Z"/>
        <path class="cls-7" d="m201.43,219.7v-21.3h9.6c1,0,1.92.21,2.78.63.85.42,1.58.97,2.21,1.65.62.68,1.1,1.45,1.46,2.31.35.86.52,1.73.52,2.61,0,.66-.08,1.3-.24,1.91-.16.61-.39,1.19-.69,1.72-.3.54-.67,1.03-1.09,1.46-.43.43-.92.79-1.46,1.1l4.68,7.92h-5.55l-4.08-6.87h-3.21v6.87h-4.92Zm4.92-11.16h4.5c.58,0,1.08-.27,1.5-.82.42-.55.63-1.25.63-2.12s-.24-1.58-.72-2.1c-.48-.52-1-.78-1.56-.78h-4.35v5.82Z"/>
        <path class="cls-7" d="m230.86,219.88c-1.58,0-3.02-.31-4.32-.93-1.3-.62-2.41-1.43-3.33-2.45-.92-1.01-1.63-2.16-2.14-3.46-.51-1.3-.77-2.64-.77-4.02s.27-2.75.8-4.05c.53-1.3,1.27-2.44,2.22-3.44.95-.99,2.07-1.78,3.38-2.37,1.3-.59,2.72-.88,4.26-.88s3.02.31,4.32.93c1.3.62,2.41,1.44,3.33,2.46.92,1.02,1.63,2.18,2.13,3.48.5,1.3.75,2.62.75,3.96s-.27,2.75-.79,4.05c-.53,1.3-1.27,2.45-2.21,3.43-.94.99-2.06,1.79-3.36,2.39-1.3.6-2.72.9-4.26.9Zm-5.55-10.8c0,.82.12,1.62.36,2.39.24.77.59,1.45,1.07,2.06.47.6,1.05,1.08,1.75,1.44.7.36,1.5.54,2.4.54s1.76-.19,2.46-.57c.7-.38,1.28-.88,1.74-1.49.46-.61.81-1.3,1.04-2.07.23-.77.35-1.55.35-2.35s-.12-1.61-.36-2.38c-.24-.77-.6-1.45-1.08-2.04-.48-.59-1.07-1.06-1.75-1.41-.69-.35-1.49-.52-2.38-.52s-1.76.19-2.45.56c-.69.37-1.27.85-1.74,1.46-.47.6-.82,1.29-1.05,2.05-.23.77-.34,1.56-.34,2.35Z"/>
        <path class="cls-7" d="m244.33,219.7v-21.3h9.6c1,0,1.92.21,2.78.63.85.42,1.58.97,2.21,1.65.62.68,1.1,1.45,1.46,2.31.35.86.52,1.73.52,2.61,0,.66-.08,1.3-.24,1.91-.16.61-.39,1.19-.69,1.72-.3.54-.66,1.03-1.09,1.46s-.92.79-1.46,1.1l4.68,7.92h-5.55l-4.08-6.87h-3.21v6.87h-4.92Zm4.92-11.16h4.5c.58,0,1.08-.27,1.5-.82.42-.55.63-1.25.63-2.12s-.24-1.58-.72-2.1c-.48-.52-1-.78-1.56-.78h-4.35v5.82Z"/>
      </g>
      <g>
        <path class="cls-7" d="m31.23,45.9c-1.58,0-3.02-.31-4.32-.93-1.3-.62-2.41-1.44-3.33-2.44-.92-1.01-1.64-2.17-2.15-3.47-.51-1.3-.77-2.64-.77-4.02s.26-2.75.79-4.05c.53-1.3,1.27-2.44,2.22-3.44.95-.99,2.07-1.78,3.37-2.37,1.3-.59,2.72-.88,4.26-.88s3.02.31,4.32.93c1.3.62,2.41,1.44,3.33,2.46s1.63,2.18,2.13,3.48c.5,1.3.75,2.62.75,3.96s-.27,2.75-.8,4.05c-.53,1.3-1.27,2.44-2.2,3.44-.94.99-2.06,1.79-3.36,2.38-1.3.6-2.72.9-4.26.9Zm-5.55-10.8c0,.82.12,1.62.36,2.39.24.77.59,1.46,1.06,2.05.47.6,1.05,1.08,1.75,1.44.7.36,1.5.54,2.4.54s1.76-.19,2.46-.57c.7-.38,1.28-.87,1.74-1.48.46-.61.8-1.3,1.03-2.07.23-.77.35-1.55.35-2.36s-.12-1.61-.36-2.38c-.24-.77-.6-1.45-1.08-2.04-.48-.59-1.06-1.06-1.75-1.41-.69-.35-1.49-.52-2.39-.52s-1.75.19-2.44.56c-.69.37-1.27.85-1.74,1.46-.47.6-.82,1.29-1.05,2.05-.23.77-.35,1.56-.35,2.36Z"/>
        <path class="cls-7" d="m51.81,46.02c-1.34,0-2.53-.22-3.58-.66-1.05-.44-1.94-1.04-2.65-1.79-.72-.75-1.27-1.62-1.64-2.61-.37-.99-.55-2.02-.55-3.1s.18-2.12.55-3.11c.37-.99.92-1.86,1.64-2.61.72-.75,1.6-1.35,2.65-1.8,1.05-.45,2.25-.67,3.58-.67s2.53.22,3.57.67c1.04.45,1.92,1.05,2.64,1.8.72.75,1.27,1.62,1.65,2.61.38.99.57,2.02.57,3.11s-.18,2.11-.56,3.1c-.37.99-.91,1.86-1.63,2.61-.72.75-1.6,1.35-2.66,1.79-1.05.44-2.25.66-3.58.66Zm-3.51-8.16c0,1.24.33,2.23.99,2.98.66.75,1.5,1.12,2.52,1.12.5,0,.96-.1,1.38-.3.42-.2.78-.48,1.1-.84.31-.36.56-.79.73-1.3.18-.51.27-1.07.27-1.67,0-1.24-.33-2.24-.99-2.99-.66-.75-1.49-1.12-2.49-1.12-.5,0-.96.1-1.39.3-.43.2-.8.48-1.11.84-.31.36-.56.79-.73,1.31-.18.51-.27,1.06-.27,1.66Z"/>
        <path class="cls-7" d="m72.57,46.02c-1.2,0-2.24-.25-3.12-.75-.88-.5-1.56-1.2-2.04-2.1v8.94h-4.8v-22.14h4.17v2.55c.58-.9,1.31-1.6,2.18-2.1s1.9-.75,3.1-.75c1.06,0,2.03.21,2.92.63.89.42,1.66,1,2.31,1.73.65.73,1.16,1.59,1.53,2.58.37.99.55,2.06.55,3.2s-.17,2.27-.51,3.27c-.34,1-.81,1.87-1.41,2.59-.6.73-1.32,1.31-2.16,1.73-.84.42-1.75.63-2.73.63Zm-1.62-4.05c.52,0,.99-.11,1.42-.35.43-.23.8-.53,1.12-.91.32-.38.56-.83.73-1.34.17-.51.25-1.04.25-1.6s-.09-1.11-.28-1.61c-.19-.49-.45-.91-.78-1.27-.33-.36-.73-.64-1.2-.84-.47-.2-.98-.3-1.52-.3-.66,0-1.29.2-1.9.59-.61.39-1.08.91-1.4,1.57v3.24c.32.8.8,1.47,1.45,2.01.65.54,1.35.81,2.09.81Z"/>
        <path class="cls-7" d="m88.02,46.02c-1.34,0-2.66-.21-3.96-.65-1.3-.43-2.4-1.05-3.3-1.88l1.71-2.94c.96.66,1.89,1.17,2.81,1.53.91.36,1.78.54,2.62.54.62,0,1.1-.11,1.44-.33.34-.22.51-.54.51-.96s-.22-.75-.64-1c-.43-.25-1.19-.52-2.27-.8-1.06-.3-1.95-.59-2.68-.87-.73-.28-1.33-.59-1.79-.93-.46-.34-.79-.73-.99-1.17-.2-.44-.3-.96-.3-1.56,0-.8.16-1.53.48-2.19.32-.66.76-1.22,1.32-1.68.56-.46,1.23-.82,2-1.08.77-.26,1.6-.39,2.5-.39,1.18,0,2.28.16,3.31.48,1.03.32,2.03.9,2.99,1.74l-1.86,2.88c-.9-.62-1.7-1.07-2.4-1.35s-1.38-.42-2.04-.42c-.52,0-.96.1-1.32.32-.36.21-.54.54-.54,1s.19.77.58.99c.39.22,1.11.46,2.18.72,1.12.3,2.06.6,2.83.9.77.3,1.4.64,1.87,1,.48.37.83.79,1.05,1.28.22.48.33,1.05.33,1.71,0,1.56-.58,2.8-1.74,3.72-1.16.92-2.73,1.38-4.71,1.38Z"/>
        <path class="cls-7" d="m96.75,45.72v-4.89h3.93v4.89h-3.93Z"/>
        <path class="cls-7" d="m103.92,45.72v-4.89h3.93v4.89h-3.93Z"/>
        <path class="cls-7" d="m111.09,45.72v-4.89h3.93v4.89h-3.93Z"/>
      </g>
    </g>
  </g>
  <g id="Character">
    <g>
      <g>
        <path class="cls-5" d="m212.6,282.94c-2.47-.14-14.43-1.4-16.52-3.32-5.7-5.24-8.98-8.64-9.5-11.87-.46-2.87,1.81-8.3,1.86-11.25.05-2.95,5.05-1.34,6.78-1.52,3.56-.36,4.35,1.7,6.21,2.37,1.31.47,5.73-1.91,8.86.33,3.05,2.18,2.5,6.05,2.5,6.05,0,0,7.29,3.33,7.42,7.32.15,4.49-4.83,12.04-7.61,11.89Z"/>
        <path class="cls-4" d="m212.6,282.94c-2.47-.14-14.43-1.4-16.52-3.32-5.7-5.24-8.98-8.64-9.5-11.87-.46-2.87,1.81-8.3,1.86-11.25.05-2.95,5.05-1.34,6.78-1.52,3.56-.36,4.35,1.7,6.21,2.37,1.31.47,5.73-1.91,8.86.33,3.05,2.18,2.5,6.05,2.5,6.05,0,0,7.29,3.33,7.42,7.32.15,4.49-4.83,12.04-7.61,11.89Z"/>
      </g>
      <g>
        <path class="cls-5" d="m72.17,376.77c-3.63,4.24-18.45,7.16-27.16.32-8.71-6.84-13.89-29.52-13.65-37.17.24-7.65,22.59-101.24,28.95-123.57,6.36-22.32-4-33.38-11.3-38.66-7.3-5.28-22.7.47-25.82,3.8-3.12,3.32-4.54,12.12-4.54,12.12,0,0,2.59-8,7.3-10.64,4.71-2.64,15.06-4.54,20.48-1.48,5.41,3.06,13.36,16.69,8.92,28.61-4.44,11.91-31.51,119.99-32.15,130.09-.77,12.13,6.06,33.5,16.41,42.73,10.36,9.23,28.12,8.36,29.95,8.97,1.83.61,2.16,3.38,2.16,3.38l.47-18.5Z"/>
        <path class="cls-1" d="m72.17,376.77c-3.63,4.24-18.45,7.16-27.16.32-8.71-6.84-13.89-29.52-13.65-37.17.24-7.65,22.59-101.24,28.95-123.57,6.36-22.32-4-33.38-11.3-38.66-7.3-5.28-22.7.47-25.82,3.8-3.12,3.32-4.54,12.12-4.54,12.12,0,0,2.59-8,7.3-10.64,4.71-2.64,15.06-4.54,20.48-1.48,5.41,3.06,13.36,16.69,8.92,28.61-4.44,11.91-31.51,119.99-32.15,130.09-.77,12.13,6.06,33.5,16.41,42.73,10.36,9.23,28.12,8.36,29.95,8.97,1.83.61,2.16,3.38,2.16,3.38l.47-18.5Z"/>
        <g class="cls-15">
          <path class="cls-3" d="m66.67,381.12c-.29,1.77-.49,3.54-.51,5.33-.05,1.71,0,3.43.21,5.13-.13,0-.26-.01-.4-.03-.27-1.69-.32-3.41-.3-5.11.05-1.81.25-3.62.62-5.39.08-.37.16-.74.25-1.11.13-.04.25-.08.37-.12-.09.43-.17.87-.24,1.3Z"/>
          <path class="cls-3" d="m53.69,380.78l-.12.69c-.33,1.76-.45,3.54-.57,5.34-.03-.9-.07-1.8-.04-2.7.06-.9.1-1.8.23-2.7.03-.24.06-.47.09-.7.13.03.27.05.41.07Z"/>
          <path class="cls-3" d="m55.7,390.24c0,.19,0,.37.02.56-.03-.19-.06-.38-.08-.57-.11-.7-.21-1.4-.27-2.11-.05-.9-.12-1.8-.09-2.71-.01-1.45.14-2.91.36-4.36.16.01.33.03.49.04-.25,1.43-.41,2.88-.47,4.34-.11,1.6-.04,3.2.04,4.81Z"/>
          <path class="cls-3" d="m59.59,388.2c-.02.91-.01,1.82.03,2.73-.15-.02-.31-.05-.46-.07-.02-.9,0-1.79.05-2.68.11-1.8.36-3.6.9-5.32-.34,1.77-.48,3.55-.52,5.34Z"/>
          <path class="cls-3" d="m49.55,379.65c-.18.84-.34,1.69-.45,2.54-.26,1.77-.41,3.55-.41,5.34-.01.24-.01.47-.01.71-.12-.04-.23-.08-.35-.13,0-.19-.02-.39-.02-.58-.09-1.81.07-3.62.3-5.41.13-.89.3-1.77.52-2.64.14.06.28.12.42.17Z"/>
          <path class="cls-3" d="m39.42,369.95c-.13.26-.25.52-.36.78-.74,1.62-1.38,3.3-1.87,5.01-.38,1.21-.65,2.45-.9,3.7-.05-.06-.09-.11-.14-.17.03-.33.08-.66.13-.98.16-.88.3-1.78.54-2.65.42-1.76,1.07-3.46,1.78-5.12.17-.37.35-.74.53-1.1.1.18.19.35.29.53Z"/>
          <path class="cls-3" d="m40.88,372.39c-.31.77-.58,1.55-.82,2.34-.54,1.69-.98,3.43-1.26,5.19-.12.66-.22,1.31-.29,1.98-.09-.09-.18-.18-.26-.28.03-.59.08-1.17.17-1.75.21-1.8.65-3.56,1.17-5.3.29-.9.61-1.79.98-2.66.1.16.2.32.31.48Z"/>
          <path class="cls-3" d="m43.52,377.9c-.54,1.72-.91,3.48-1.15,5.25-.08.59-.15,1.18-.2,1.77-.14-.09-.28-.19-.42-.29.06-.51.14-1.03.24-1.54.33-1.78.79-3.54,1.53-5.19Z"/>
          <path class="cls-3" d="m37.58,366.19c-.65.88-1.25,1.79-1.8,2.73-.95,1.52-1.72,3.14-2.49,4.76.3-.84.59-1.7.95-2.53.39-.81.75-1.64,1.2-2.42.56-1.06,1.21-2.07,1.92-3.04.07.17.14.34.22.5Z"/>
          <path class="cls-3" d="m32.96,351.93c-.37.33-.74.66-1.1,1-1.32,1.2-2.51,2.55-3.7,3.89.53-.72,1.04-1.47,1.62-2.16.59-.68,1.17-1.38,1.82-2.01.4-.42.82-.82,1.25-1.19.04.15.08.31.11.47Z"/>
          <path class="cls-3" d="m33.63,354.65c-.89.85-1.73,1.75-2.51,2.7-1.18,1.34-2.19,2.82-3.22,4.3.44-.79.86-1.59,1.35-2.34.51-.75,1-1.51,1.57-2.21.81-1.06,1.71-2.04,2.67-2.97.05.17.09.35.14.52Z"/>
          <path class="cls-3" d="m34.96,359.21h0c-.86.87-1.65,1.78-2.4,2.72-1.11,1.4-2.16,2.85-3.04,4.41-.17.28-.33.56-.49.84-.08-.18-.16-.37-.24-.56.09-.18.2-.36.3-.54.93-1.55,1.99-3.03,3.17-4.39.82-.94,1.69-1.84,2.64-2.65.02.06.04.11.06.17Z"/>
          <path class="cls-3" d="m31.69,344.98c-1.73.09-3.47.25-5.16.6-1.07.19-2.14.42-3.19.71-.01-.15-.03-.3-.04-.45,1.03-.3,2.08-.54,3.14-.75,1.72-.32,3.45-.49,5.2-.5.02.13.03.26.05.39Z"/>
          <path class="cls-3" d="m32.71,331.78c-.04.16-.07.32-.1.48-1.27-.08-2.54-.09-3.81-.03-1.45.03-2.88.2-4.32.4,0-.04.01-.07.02-.11.53-.13,1.05-.25,1.59-.34.89-.13,1.79-.28,2.69-.34,1.31-.12,2.62-.12,3.93-.06Z"/>
          <path class="cls-3" d="m32.25,334.13c-.03.16-.06.32-.09.47-.49-.01-.98-.01-1.47.01-1.79.03-3.57.18-5.33.48-.48.07-.95.15-1.42.24.02-.11.04-.22.07-.33.42-.11.85-.21,1.28-.29,1.77-.38,3.58-.53,5.39-.6.52-.01,1.05,0,1.57.02Z"/>
          <path class="cls-3" d="m28.79,338.91c-1.8.04-3.58.26-5.33.59-.07.01-.15.03-.22.05,0-.12.03-.26.05-.4.03-.01.07-.02.1-.02,1.79-.26,3.6-.39,5.4-.22Z"/>
          <path class="cls-3" d="m33.53,327.78c-.03.12-.05.23-.07.34-.31-.04-.63-.07-.94-.09-1.78-.12-3.57-.17-5.35-.03-.59.04-1.17.08-1.76.15.04-.17.08-.33.11-.49.54-.06,1.08-.11,1.62-.15,1.81-.11,3.62-.07,5.42.14.32.04.65.08.97.13Z"/>
          <path class="cls-3" d="m36.24,315.28c-.04.16-.07.33-.11.49-1.67-.37-3.38-.63-5.11-.75-.87-.08-1.75-.12-2.62-.12.02-.08.04-.16.06-.25.86-.02,1.72-.07,2.59-.01,1.75.04,3.48.31,5.19.64Z"/>
          <path class="cls-3" d="m35.73,317.59c-.04.15-.07.3-.1.44-1-.19-2.01-.33-3.02-.41-1.59-.17-3.2-.24-4.8-.18.03-.14.07-.28.1-.42,1.58-.1,3.17-.03,4.75.1,1.03.1,2.05.26,3.07.47Z"/>
          <path class="cls-3" d="m30.21,321.65c-1.11-.11-2.22-.14-3.33-.12.02-.09.04-.19.07-.28,1.1.05,2.19.17,3.26.4Z"/>
          <path class="cls-3" d="m39.23,302.08c-.03.12-.05.23-.08.35-1.62-.33-3.27-.5-4.92-.68.9.01,1.8,0,2.7.07.77.07,1.54.13,2.3.26Z"/>
          <path class="cls-3" d="m38.7,304.39c-.04.16-.07.31-.11.46-1.02-.18-2.04-.3-3.07-.38-1.54-.16-3.08-.16-4.64-.14.01-.03.02-.05.02-.08.64-.07,1.29-.14,1.94-.17.9-.02,1.8-.06,2.71,0,1.06.04,2.11.15,3.15.31Z"/>
          <path class="cls-3" d="m37.93,309l-.27-.06c-1.66-.36-3.35-.56-5.05-.65-.88-.04-1.76-.07-2.65-.06.03-.15.07-.3.11-.45.86,0,1.72.05,2.57.13,1.71.17,3.41.46,5.03,1,.09.03.17.06.26.09Z"/>
          <path class="cls-3" d="m40.23,297.77c-.04.16-.08.32-.11.47-.38-.09-.76-.16-1.14-.22-1.75-.32-3.53-.54-5.31-.6-.37-.02-.75-.04-1.12-.04.03-.11.05-.23.08-.34.35,0,.7,0,1.05,0,1.81-.02,3.61.2,5.39.49.39.07.77.15,1.16.24Z"/>
          <path class="cls-3" d="m44.06,281.4c-.02.1-.05.2-.07.3-1.22-.22-2.47-.37-3.71-.52.87.02,1.74.02,2.62.09.39.04.78.09,1.16.13Z"/>
          <path class="cls-3" d="m42.6,287.59c-.03.14-.07.28-.1.41-.29-.07-.59-.13-.89-.19-1.74-.4-3.52-.58-5.31-.78.89,0,1.8,0,2.7.07.89.09,1.8.16,2.68.33.31.05.62.1.92.16Z"/>
          <path class="cls-3" d="m46.88,269.59c-.04.16-.08.31-.11.46-1.33-.43-2.69-.79-4.08-1.06-1-.22-2.01-.38-3.03-.5.02-.07.04-.15.06-.22.12.01.23.01.35.02.9.09,1.8.16,2.69.32,1.4.21,2.77.56,4.12.98Z"/>
          <path class="cls-3" d="m45.79,274.1c-.03.15-.07.3-.11.45-.7-.21-1.42-.39-2.14-.54-1.66-.38-3.36-.66-5.06-.8l.09-.39c1.71.07,3.4.36,5.08.71.72.16,1.43.35,2.14.57Z"/>
          <path class="cls-3" d="m49.87,251.85c-1.69-.63-3.42-1.09-5.17-1.43-.14-.03-.29-.05-.43-.08.03-.13.07-.26.1-.39.14.03.27.06.41.09,1.75.43,3.48.99,5.09,1.81Z"/>
          <path class="cls-3" d="m47.84,265.62c-.03.12-.06.23-.09.35-.15-.05-.29-.1-.44-.15-1.7-.55-3.42-1.03-5.19-1.32-.46-.09-.93-.17-1.4-.23.04-.15.08-.31.12-.46.46.06.92.13,1.37.2,1.78.33,3.54.81,5.23,1.45.13.05.27.1.4.16Z"/>
          <path class="cls-3" d="m61.33,212.13s0,.08-.02.13c-1.26-.62-2.58-1.12-3.9-1.57-.68-.23-1.38-.44-2.07-.63.06-.14.11-.29.15-.43.69.21,1.38.44,2.05.7,1.3.5,2.59,1.09,3.79,1.8Z"/>
          <path class="cls-3" d="m58.97,215.77c-1.62-.63-3.3-1.1-5-1.46h0c.04-.13.08-.24.11-.36,1.68.44,3.35,1.01,4.89,1.82Z"/>
          <path class="cls-3" d="m59.52,190.09c-1.35.19-2.7.47-4.05.75.86-.26,1.72-.55,2.6-.76.44-.09.87-.2,1.31-.29.05.1.1.2.14.3Z"/>
          <path class="cls-3" d="m60.56,192.66c-.58.04-1.16.09-1.73.16-1.31.12-2.6.35-3.9.61-.01-.04-.03-.09-.05-.13.41-.13.83-.25,1.24-.35.88-.19,1.76-.4,2.66-.51.54-.09,1.09-.16,1.63-.2.06.14.11.28.15.42Z"/>
          <path class="cls-3" d="m62.23,205.09c0,.1,0,.2-.01.31-1.23-.29-2.48-.51-3.73-.73.89.07,1.8.12,2.69.25.35.06.7.12,1.05.17Z"/>
          <path class="cls-3" d="m59.96,197.21c-1.3.01-2.59.12-3.87.3-.02-.11-.05-.2-.07-.3h0c1.31-.12,2.63-.14,3.94,0Z"/>
          <path class="cls-3" d="m56.05,184.39c-.98.47-1.94.99-2.86,1.55-.53.3-1.04.62-1.54.96-.05-.08-.1-.16-.16-.24.49-.37.98-.73,1.5-1.05.88-.59,1.81-1.12,2.76-1.59.1.12.2.24.3.37Z"/>
          <path class="cls-3" d="m50.69,180.48c-.93.68-1.81,1.41-2.65,2.19-.07-.07-.15-.13-.22-.19.9-.74,1.85-1.42,2.87-2Z"/>
          <path class="cls-3" d="m39.43,175.62c-.57,1.07-1.07,2.16-1.53,3.27-.15.36-.29.72-.43,1.09-.16,0-.32.01-.48.03.18-.43.36-.85.55-1.27.49-1.07,1.05-2.12,1.67-3.11h.01c.08,0,.14-.01.21-.01Z"/>
          <path class="cls-3" d="m35.6,176.97c-.56,1.1-1.04,2.23-1.45,3.38-.12.02-.24.04-.35.06.5-1.2,1.09-2.36,1.8-3.44Z"/>
          <path class="cls-3" d="m31.98,177.06c-.1,1.02-.16,2.04-.22,3.07-.04-.9-.09-1.8-.06-2.7,0-.1,0-.19,0-.29.09-.03.18-.06.27-.08Z"/>
          <path class="cls-3" d="m29.23,181.57c-.14.04-.28.08-.41.13-.17-1.12-.24-2.26-.28-3.4.15-.06.32-.13.48-.2.01,1.16.07,2.32.21,3.47Z"/>
          <path class="cls-3" d="m26.78,180.11c-.08.83-.12,1.67-.12,2.5-.08.03-.17.08-.25.12.07-.88.18-1.76.37-2.62Z"/>
          <path class="cls-3" d="m50.06,178.49c-1.03.7-2.02,1.47-2.97,2.28-.26.22-.52.45-.78.68-.13-.08-.27-.15-.41-.21.31-.26.62-.52.94-.77.98-.76,2-1.47,3.08-2.09.04.03.09.07.14.11Z"/>
          <path class="cls-3" d="m54.39,182.44c-.97.64-1.91,1.34-2.86,2.03.67-.59,1.33-1.21,2.04-1.77.21-.16.41-.31.62-.47.07.07.13.14.2.21Z"/>
          <path class="cls-3" d="m50.33,255.36l-.12.48c-.1-.04-.2-.08-.3-.11-1.68-.61-3.4-1.1-5.16-1.45-.47-.11-.94-.2-1.42-.28.03-.1.05-.19.07-.29.48.05.96.11,1.43.2,1.78.27,3.53.77,5.24,1.35.09.03.17.06.26.1Z"/>
          <path class="cls-3" d="m53.24,243.57c-.02.07-.04.14-.05.21-.73-.22-1.48-.43-2.22-.64.75.14,1.51.26,2.27.43Z"/>
          <path class="cls-3" d="m52.12,248.05c-.03.14-.06.27-.09.41-.34-.1-.69-.19-1.04-.28-1.73-.48-3.5-.76-5.27-1.05.89.06,1.8.1,2.69.21.89.14,1.79.25,2.67.47.35.07.7.15,1.04.24Z"/>
          <path class="cls-3" d="m57.9,225.24l-.12.45c-.56-.16-1.12-.3-1.68-.42-1.65-.39-3.31-.68-5-.82.04-.14.07-.27.11-.4,1.68.09,3.35.38,5,.73.57.14,1.13.29,1.69.46Z"/>
          <path class="cls-3" d="m54.35,239.12c-.04.16-.08.31-.12.46-1.01-.32-2.04-.59-3.08-.8-1.23-.3-2.47-.48-3.72-.64.02-.05.03-.1.04-.15.36.01.71.02,1.07.05.89.1,1.79.18,2.68.36,1.06.17,2.1.42,3.13.72Z"/>
          <path class="cls-3" d="m56.86,229.24s-.02.08-.04.13c-.44-.14-.88-.26-1.32-.39.46.09.91.17,1.36.26Z"/>
          <path class="cls-3" d="m57.99,219.21c-1.65-.58-3.35-1-5.06-1.3.03-.12.06-.24.1-.36,1.7.38,3.39.9,4.96,1.66Z"/>
          <path class="cls-3" d="m41.61,291.8c-.01.07-.03.14-.05.2-1.08-.31-2.18-.55-3.29-.74-1.36-.24-2.73-.43-4.11-.52.04-.15.07-.31.11-.46,1.37.11,2.73.3,4.07.6,1.1.24,2.2.54,3.27.92Z"/>
        </g>
      </g>
      <g>
        <path class="cls-8" d="m106.9,419.7c2.7-.44,5.89-.38,8.72-.11,3.22.31,6.51,1.16,9.44,2.58.86.42,1.63-.87.76-1.3-5.84-2.83-12.93-3.66-19.32-2.62-.95.16-.55,1.6.4,1.45h0Z"/>
        <path class="cls-8" d="m103.98,419.99c3.08.17,6.26,1.5,8.85,3.08s5.54,3.99,7.32,6.51c.55.78,1.85.03,1.3-.76-2.01-2.84-4.92-5.25-7.86-7.04s-6.26-3.1-9.6-3.29c-.96-.05-.96,1.45,0,1.5h0Z"/>
      </g>
      <g>
        <path class="cls-8" d="m170.25,403.69c2.7-.44,5.89-.38,8.72-.11,3.22.31,6.51,1.16,9.44,2.58.86.42,1.63-.87.76-1.3-5.84-2.83-12.93-3.66-19.32-2.62-.95.16-.55,1.6.4,1.45h0Z"/>
        <path class="cls-8" d="m167.34,403.98c3.08.17,6.26,1.5,8.85,3.08s5.54,3.99,7.32,6.51c.55.78,1.85.03,1.3-.76-2.01-2.84-4.92-5.25-7.86-7.04s-6.26-3.1-9.6-3.29c-.96-.05-.96,1.45,0,1.5h0Z"/>
      </g>
      <g>
        <path class="cls-5" d="m129.61,218.57s-23.37-.44-40.18-14.19c-13.92-11.39-19-17.03-22.06-14.19-3.06,2.84,1.42,48.7,38,58.96,12.45,3.49,24.24-19,24.24-19v-11.57Z"/>
        <path class="cls-1" d="m129.61,218.57s-23.37-.44-40.18-14.19c-13.92-11.39-19-17.03-22.06-14.19-3.06,2.84,1.42,48.7,38,58.96,12.45,3.49,24.24-19,24.24-19v-11.57Z"/>
        <path class="cls-1" d="m129.6,218.57v11.58s-11.79,22.49-24.24,19c-10-2.81-17.6-8.28-23.31-14.81,8.74-5.71,21.91-14.27,29.31-18.87,10.12,2.95,18.24,3.1,18.24,3.1Z"/>
      </g>
      <path class="cls-5" d="m103.2,297.8s-14.26-26.82-13.28-39.92c.98-13.1,14.9-35.21,26.53-40.78,11.63-5.57,65.68,2.39,83.53,20.8,3.87,3.99.19,11.06-1.8,14.66-2.58,4.67-11.6,15.19-19.41,18.24,0,0,1.39,15.42-14.98,23.77,0,0,5.57,26.21,10.65,40.46,5.08,14.25,17.36,38,9.83,55.2-7.53,17.2-26.52,15.89-38.97,17.69-12.46,1.8-33.42,13.92-51.93,11.3-18.51-2.62-25.86-23.16-20.64-45.53,5.73-24.57,15.41-54.42,30.48-75.88Z"/>
      <g>
        <path class="cls-5" d="m106.96,240.85s-6.99-.66-20.53-6.11c-13.54-5.46-35.9-19.84-57.65-8.3-25.11,13.32-33.51,73.71,14.41,92.38,41.34,16.1,70.76-44.99,70.76-44.99l-6.99-32.98Z"/>
        <path class="cls-1" d="m113.95,273.83s-29.41,61.08-70.75,44.98c-10.81-4.21-18.75-10.53-24.27-17.97-6.56-11.14-8.5-22.18-8.91-28.21-.83-11.85.98-28.99,16.37-38.5,15.4-9.5,35.05-.49,50.45,7.86,15.4,8.35,29.16,9.01,32.64,10.74,0,0,0,.03,0,.04,7.6,7.41,4.46,21.06,4.46,21.06Z"/>
        <path class="cls-8" d="m76.83,230.44c9.82,3.71,19.85,8.26,30.13,10.41-10.64-.81-20.82-5.44-30.13-10.41h0Z"/>
        <path class="cls-8" d="m99.83,295.71c4.68-7.13,9.89-14.5,14.12-21.89-3.09,8.17-8.27,15.46-14.12,21.89h0Z"/>
        <path class="cls-8" d="m100.9,239.62c1.45-.9,3.36-1.02,4.95-.45-1.65.13-3.3.21-4.95.45h0Z"/>
        <path class="cls-8" d="m110.92,279.63c1.16-1.45,2.46-2.41,3.74-3.73-.36,1.85-2.02,3.18-3.74,3.73h0Z"/>
        <g>
          <path class="cls-8" d="m110.92,262.08c-9.49-.3-19.4-.86-28.85-.24-7.1.63-13.84,3.83-20.16,7.06-2.14,1.1-4.24,2.28-6.31,3.51,7.93-5.43,16.64-10.46,26.4-11.57,9.67-.51,19.32.11,28.92,1.23h0Z"/>
          <path class="cls-8" d="m106.96,263.83c-9.97,2.18-21.09,3.29-28.78,10.68-1.1,1-2.12,2.09-3.05,3.26,6.47-10.95,20.19-13.02,31.83-13.94h0Z"/>
        </g>
      </g>
      <g>
        <g>
          <path class="cls-8" d="m187.07,277.21c-.23-4.26,1.04-8.86,3.57-12.3.57-.78-.73-1.53-1.3-.76-1.39,1.89-2.42,4.15-2.99,6.42-.54,2.13-.9,4.43-.78,6.64.05.96,1.55.97,1.5,0h0Z"/>
          <path class="cls-8" d="m188.29,278.26c.4-2.05,1.65-4.04,3.01-5.57,1.62-1.84,3.71-3.55,5.97-4.57.88-.4.12-1.69-.76-1.3-.72.33-1.4.75-2.06,1.19-1.59,1.06-3.09,2.31-4.34,3.76-1.46,1.69-2.83,3.85-3.26,6.09-.18.94,1.26,1.35,1.45.4h0Z"/>
          <path class="cls-8" d="m188.85,279.55c.81-1.59,2.28-2.94,3.74-3.93,1.88-1.27,4.3-2.31,6.62-2.3.97,0,.97-1.5,0-1.5-2.57-.01-5.28,1.09-7.37,2.5-1.66,1.12-3.35,2.65-4.28,4.46-.44.86.86,1.62,1.3.76h0Z"/>
        </g>
        <path class="cls-5" d="m142.79,302.14s25.5,4.24,42.47-25.44c0,0,3.67-2.1,4.56,1.9,0,0,1.93,29.27-15.37,42.45-17.56,13.37-38.07,9.26-38.07,9.26,0,0-13.01-17.74,6.42-28.17Z"/>
        <path class="cls-8" d="m164.33,297.8c-4.46,3.52-10.46,4.87-16.06,4.48,5.42-.99,11.02-2.2,16.06-4.48h0Z"/>
        <g>
          <path class="cls-8" d="m136.37,330.3c13.3,1.61,26.99-1.74,38.07-9.26-1.33,1.02-2.62,2.13-4.04,3.03-9.87,6.46-22.51,8.88-34.03,6.23h0Z"/>
          <path class="cls-8" d="m138.86,331.85c1.94-.12,3.74-.43,5.68-.85-1.42,1.38-3.93,1.78-5.68.85h0Z"/>
        </g>
      </g>
      <g>
        <g>
          <path class="cls-8" d="m158.13,253.93c-.17-.11-.15.45.01.6,3.86,3.46,7.61,8.06,5.11,12.54-.08.14.12.31.24.17,3.99-4.58-1.06-10.63-5.36-13.31Z"/>
          <path class="cls-8" d="m151.34,254.1c-6.95,5.82,3.55,17.33,9.99,11.93,6.34-5.31-4.17-16.82-9.99-11.93Z"/>
        </g>
        <g>
          <path class="cls-8" d="m136.24,260.08c-3.68-5.05-2.46-13.71,3.74-16.13-3.96,4.55-4.45,10.35-3.74,16.13h0Z"/>
          <path class="cls-8" d="m135.5,260.18c-4.64-4.18-5.25-12.9.31-16.56-2.93,5.27-2.21,11.05-.31,16.56h0Z"/>
        </g>
      </g>
      <path class="cls-2" d="m175.26,401.03c-8.98,5.89-21.13,5.6-29.98,6.89-8.79,1.27-21.82,7.67-35.24,10.41-.2-10.82.8-34,10.98-55.95,13.22-28.51,32-37.29,38.11-14.55,4.71,17.52,5.23,33.3,16.12,53.2Z"/>
      <path class="cls-8" d="m163.78,294.57c-9.78,4.38-21.92,3.48-30.66-2.81-1.26-.85-2.36-1.93-3.51-2.92,9.68,7.5,22.57,9.38,34.18,5.73h0Z"/>
      <path class="cls-8" d="m201.56,243.98s-9.9.63-9.89-2.36c0-1.38,7.55-5.98,10.28-5.98s-.39,8.34-.39,8.34Z"/>
      <circle class="cls-13" cx="155.4" cy="275.78" r="7.16"/>
    </g>
  </g>
  <g id="Crumbs">
    <g>
      <g>
        <path class="cls-5" d="m217.41,406.19c0-1.4,2.6-3.16,3.33-3.6.72-.44,3.99-.67,4.21-1.22.22-.55,3.38-1.22,4.54-1.16s2.72,2.11,2.94,3.71-.89,3.33-2.33,3.6-4.07,1.61-5.17,1.72c-1.1.11-7.52-1.5-7.52-3.05Z"/>
        <path class="cls-4" d="m217.41,406.19c0-1.4,2.6-3.16,3.33-3.6.72-.44,3.99-.67,4.21-1.22.22-.55,3.38-1.22,4.54-1.16s2.72,2.11,2.94,3.71-.89,3.33-2.33,3.6-4.07,1.61-5.17,1.72c-1.1.11-7.52-1.5-7.52-3.05Z"/>
      </g>
      <g>
        <path class="cls-5" d="m206.18,401.4c-.73-.98.91-1.77,1.71-2.93.8-1.17,3.53-.7,4.05-.34.52.36,1.09,2.52.86,3.27-.23.75-2.31,2.08-3.22,2.08s-2.96-1.48-3.4-2.08Z"/>
        <path class="cls-4" d="m206.18,401.4c-.73-.98.91-1.77,1.71-2.93.8-1.17,3.53-.7,4.05-.34.52.36,1.09,2.52.86,3.27-.23.75-2.31,2.08-3.22,2.08s-2.96-1.48-3.4-2.08Z"/>
      </g>
      <g>
        <path class="cls-5" d="m218.95,399.46c.19-1.59,3.3-1.13,3.78-.27s-1.3,2.54-2.11,1.84c-.81-.7-1.75-.97-1.67-1.57Z"/>
        <path class="cls-4" d="m218.95,399.46c.19-1.59,3.3-1.13,3.78-.27s-1.3,2.54-2.11,1.84c-.81-.7-1.75-.97-1.67-1.57Z"/>
      </g>
      <g>
        <path class="cls-5" d="m207.88,408.77c.5-.62,1.97-.76,2.23-.4.26.36.73,1.08.37,1.37-.36.29-1.37.94-1.84.58-.47-.36-1.02-1.22-.76-1.55Z"/>
        <path class="cls-4" d="m207.88,408.77c.5-.62,1.97-.76,2.23-.4.26.36.73,1.08.37,1.37-.36.29-1.37.94-1.84.58-.47-.36-1.02-1.22-.76-1.55Z"/>
      </g>
      <g>
        <path class="cls-5" d="m197.7,403.89c.29-1.01,1.74-1.66,2.65-1.76.91-.11,2.63.65,2.53,1.3-.1.65-1.4,1.22-1.62,1.69-.22.47-.9,1.48-1.58,1.21-.68-.27-2.3-1.32-1.98-2.43Z"/>
        <path class="cls-4" d="m197.7,403.89c.29-1.01,1.74-1.66,2.65-1.76.91-.11,2.63.65,2.53,1.3-.1.65-1.4,1.22-1.62,1.69-.22.47-.9,1.48-1.58,1.21-.68-.27-2.3-1.32-1.98-2.43Z"/>
      </g>
    </g>
  </g>
</svg>